<?xml version="1.0" encoding="UTF-8" standalone="no"?>
<svg width="145px" height="154px" viewBox="0 0 145 154" version="1.1" xmlns="http://www.w3.org/2000/svg" xmlns:xlink="http://www.w3.org/1999/xlink" xmlns:sketch="http://www.bohemiancoding.com/sketch/ns">
    <!-- Generator: Sketch 3.3.2 (12043) - http://www.bohemiancoding.com/sketch -->
    <title>Imported Layers</title>
    <desc>Created with Sketch.</desc>
    <defs></defs>
    <g id="Page-1" stroke="none" stroke-width="1" fill="none" fill-rule="evenodd" sketch:type="MSPage">
        <g id="Patterns" sketch:type="MSArtboardGroup" transform="translate(-72.000000, -138.000000)">
            <g id="Imported-Layers" sketch:type="MSLayerGroup" transform="translate(72.000000, 138.000000)">
                <path d="M137.970777,48.8540905 L79.9576695,26.8035872 L45.9574223,54.0236511 L90.3626483,107.770471 L140.715537,64.6281198 C147.265727,59.0158349 146.03077,51.9174807 137.970777,48.8540905" id="Fill-1" fill="#FB233B" sketch:type="MSShapeGroup"></path>
                <path d="M79.9576695,26.8035872 L12.2633545,1.07328362 C8.21789548,-0.464255659 4.86446328,-0.110937417 2.72448446,1.69523036 L45.9574223,54.0236511 L79.9576695,26.8035872" id="Fill-2" fill="#EE1E70" sketch:type="MSShapeGroup"></path>
                <path d="M45.9574223,54.0234461 L2.72448446,1.69523036 C0.601094633,3.48745406 -0.327683616,6.70976565 0.450769774,10.9376911 L13.2101554,80.2405619 L45.9574223,54.0234461" id="Fill-3" fill="#CE1B6D" sketch:type="MSShapeGroup"></path>
                <path d="M45.9574223,54.0234461 L13.2101554,80.2405619 L90.3626483,107.770471 L45.9574223,54.0234461" id="Fill-4" fill="#AD1D4E" sketch:type="MSShapeGroup"></path>
                <path d="M40.0095551,150.912618 L90.3626483,107.770471 L13.2101554,80.2405619 L25.2586723,145.68236 C26.8217232,154.17143 33.4595692,156.524903 40.0095551,150.912618" id="Fill-5" fill="#951F4D" sketch:type="MSShapeGroup"></path>
                <path d="M61.2749929,91.280783 L68.443072,91.280783 L68.443072,72.0176591 C68.443072,65.3630546 71.9152895,59.2834381 79.0528531,59.2834381 C86.0271893,59.2834381 88.5134887,64.5415846 88.5134887,71.4426711 L88.5134887,91.280783 L95.681363,91.280783 L95.681363,69.2243329 C95.681363,63.9663915 94.832048,60.6798961 92.7807486,57.8865699 C90.5649929,54.7645326 86.7655014,52.9571345 81.5958828,52.9571345 C75.2789619,52.9571345 70.6958969,55.9967377 68.443072,60.5154381 L68.443072,33.6589454 L61.2749929,33.6589454 L61.2749929,91.280783 L61.2749929,91.280783 Z M40.1729873,39.8115632 C40.1729873,42.9331904 42.7166314,45.4804447 45.8349506,45.4804447 C49.1175212,45.4804447 51.6611653,42.9331904 51.6611653,39.8115632 C51.6611653,36.6070919 49.1175212,33.9780186 45.8349506,33.9780186 C42.7166314,33.9780186 40.1729873,36.6070919 40.1729873,39.8115632 L40.1729873,39.8115632 Z M49.4990678,53.9598775 L42.3309887,53.9598775 L42.3309887,100.198019 C42.3309887,103.484309 41.0241455,105.373731 38.5622175,105.373731 C37.4136864,105.373731 36.5965254,105.291912 34.9581073,104.880972 L34.9581073,111.207071 C36.1869209,111.782674 38.3309958,112.193204 40.7923093,112.193204 C45.3053319,112.193204 49.4990678,109.317443 49.4990678,101.265766 L49.4990678,53.9598775 L49.4990678,53.9598775 Z" id="Fill-6" fill="#FFFFFF" sketch:type="MSShapeGroup"></path>
            </g>
        </g>
    </g>
</svg>